<svg width="26" height="16" viewBox="0 0 26 16" fill="none" xmlns="http://www.w3.org/2000/svg">
<rect width="26" height="16" fill="#848895"/>
<g clip-path="url(#clip0_1_385)">
<path fill-rule="evenodd" clip-rule="evenodd" d="M13 0C8.58233 0 5 3.67233 5 8.20233C5 11.8267 7.29233 14.9013 10.471 15.9857C10.871 16.0617 11.0177 15.808 11.0177 15.5913C11.0177 15.3957 11.01 14.7497 11.0067 14.0643C8.781 14.5603 8.31133 13.0963 8.31133 13.0963C7.94733 12.1483 7.423 11.8963 7.423 11.8963C6.69733 11.387 7.478 11.3977 7.478 11.3977C8.28133 11.4553 8.70433 12.2427 8.70433 12.2427C9.41767 13.4967 10.5757 13.1343 11.0323 12.9247C11.104 12.3947 11.3113 12.0327 11.54 11.828C9.76333 11.6203 7.89533 10.917 7.89533 7.774C7.89533 6.87867 8.20767 6.14667 8.71967 5.57233C8.63633 5.36567 8.36267 4.53133 8.797 3.40167C8.797 3.40167 9.469 3.18133 10.9977 4.24233C11.6357 4.06067 12.3203 3.96967 13 3.96633C13.68 3.96967 14.365 4.06067 15.0043 4.24233C16.531 3.18133 17.202 3.40167 17.202 3.40167C17.6373 4.53167 17.3633 5.36567 17.2803 5.57233C17.7937 6.14667 18.1037 6.87867 18.1037 7.774C18.1037 10.9247 16.2323 11.6183 14.4507 11.8213C14.7377 12.076 14.9933 12.575 14.9933 13.3403C14.9933 14.4377 14.9843 15.321 14.9843 15.5913C14.9843 15.8097 15.1283 16.0653 15.5337 15.9847C18.7107 14.899 21 11.8253 21 8.20233C21 3.67233 17.4183 0 13 0Z" fill="black"/>
<path fill-rule="evenodd" clip-rule="evenodd" d="M8.02993 11.7768C8.01227 11.8178 7.94993 11.8298 7.89293 11.8018C7.83493 11.7751 7.80227 11.7195 7.82093 11.6785C7.83827 11.6365 7.90093 11.6251 7.95893 11.6528C8.01693 11.6798 8.04993 11.7361 8.02993 11.7768ZM8.35393 12.1475C8.31593 12.1835 8.24127 12.1668 8.1906 12.1095C8.13827 12.0521 8.1286 11.9758 8.16727 11.9391C8.2066 11.9025 8.27893 11.9198 8.33127 11.9768C8.3836 12.0348 8.39393 12.1108 8.35393 12.1475ZM8.66927 12.6198C8.6206 12.6548 8.54027 12.6221 8.4906 12.5491C8.4416 12.4758 8.4416 12.3885 8.49193 12.3535C8.5416 12.3185 8.62027 12.3501 8.6706 12.4225C8.7196 12.4965 8.7196 12.5841 8.66927 12.6198ZM9.1016 13.0765C9.0576 13.1258 8.96427 13.1125 8.89593 13.0448C8.82593 12.9788 8.8066 12.8848 8.8506 12.8351C8.89493 12.7855 8.98893 12.7995 9.0576 12.8665C9.12727 12.9325 9.14827 13.0271 9.1016 13.0765ZM9.6976 13.3411C9.67827 13.4055 9.58827 13.4345 9.4976 13.4075C9.4076 13.3791 9.34827 13.3041 9.36627 13.2391C9.38527 13.1745 9.4756 13.1438 9.56693 13.1731C9.65693 13.2011 9.7166 13.2758 9.6976 13.3411ZM10.3526 13.3905C10.3546 13.4581 10.2779 13.5138 10.1826 13.5151C10.0869 13.5175 10.0096 13.4628 10.0086 13.3961C10.0086 13.3278 10.0839 13.2725 10.1793 13.2708C10.2746 13.2688 10.3526 13.3231 10.3526 13.3905ZM10.9616 13.2841C10.9729 13.3501 10.9069 13.4178 10.8126 13.4358C10.7196 13.4531 10.6336 13.4125 10.6219 13.3471C10.6103 13.2795 10.6776 13.2115 10.7703 13.1938C10.8649 13.1771 10.9496 13.2175 10.9616 13.2841Z" fill="black"/>
</g>
<defs>
<clipPath id="clip0_1_385">
<rect width="16" height="16" fill="white" transform="translate(5)"/>
</clipPath>
</defs>
</svg>
