<svg width="26" height="16" viewBox="0 0 26 16" fill="none" xmlns="http://www.w3.org/2000/svg">
<g clip-path="url(#clip0_1_398)">
<rect width="26" height="16" rx="8" fill="white"/>
<rect width="26" height="16" fill="#848895"/>
<path d="M19.9694 8.02704C19.969 7.60133 19.7997 7.19319 19.4986 6.89217C19.1976 6.59115 18.7895 6.42184 18.3638 6.42139C17.9739 6.42093 17.5975 6.5634 17.3056 6.82182C16.2437 6.14231 14.8268 5.71423 13.2641 5.66795L14.2204 2.39741L16.5682 2.83367C16.5682 2.85286 16.5643 2.87092 16.5654 2.89011C16.5794 3.15874 16.6994 3.41085 16.8991 3.59114C17.0987 3.77143 17.3617 3.86517 17.6304 3.8518C17.899 3.83771 18.151 3.71769 18.3312 3.51805C18.5115 3.31841 18.6052 3.05545 18.5918 2.78683C18.5778 2.51819 18.4578 2.26608 18.2581 2.08579C18.0585 1.90551 17.7955 1.81176 17.5268 1.82513C17.3557 1.83424 17.1896 1.88666 17.0443 1.97748C16.8989 2.06829 16.779 2.19453 16.6958 2.34436L16.6949 2.34407L13.8657 1.81836L12.7389 5.66739C11.1722 5.70887 9.75087 6.13469 8.68449 6.81279C8.39385 6.55988 8.02143 6.42084 7.63616 6.42139C7.21048 6.42192 6.80238 6.59125 6.50138 6.89225C6.20037 7.19326 6.03104 7.60135 6.03052 8.02704C6.03052 8.57448 6.31242 9.07959 6.769 9.3742C6.74046 9.53537 6.72583 9.6987 6.72526 9.86238C6.72526 12.1797 9.53472 14.0653 12.9881 14.0653C16.4415 14.0653 19.2504 12.1797 19.2504 9.8621C19.2504 9.70182 19.2357 9.54379 19.2095 9.38802C19.4413 9.24435 19.6326 9.044 19.7655 8.80589C19.8984 8.56777 19.9688 8.29973 19.9694 8.02704ZM10.0116 9.11966C10.0116 8.99009 10.0372 8.8618 10.0868 8.74211C10.1364 8.62241 10.2092 8.51366 10.3008 8.42207C10.3924 8.33047 10.5012 8.25783 10.621 8.20828C10.7407 8.15873 10.869 8.13324 10.9986 8.13328C11.1281 8.13332 11.2564 8.15887 11.3761 8.20849C11.4958 8.25811 11.6046 8.33082 11.6962 8.42247C11.7878 8.51411 11.8604 8.6229 11.9099 8.74263C11.9595 8.86235 11.985 8.99066 11.9849 9.12023C11.9849 9.38191 11.8808 9.63284 11.6958 9.81783C11.5107 10.0028 11.2597 10.1067 10.998 10.1066C10.7363 10.1065 10.4854 10.0025 10.3004 9.81743C10.1154 9.63234 10.0115 9.38135 10.0116 9.11966ZM15.3139 11.7886C15.2846 11.8191 14.5765 12.5395 12.9765 12.5395C11.3681 12.5395 10.7247 11.8092 10.6985 11.7781C10.6578 11.7272 10.6384 11.6624 10.6444 11.5975C10.6504 11.5326 10.6813 11.4725 10.7307 11.4299C10.78 11.3872 10.844 11.3654 10.9091 11.3688C10.9742 11.3723 11.0355 11.4009 11.08 11.4486C11.0946 11.4644 11.6314 12.0352 12.9763 12.0352C14.3449 12.0352 14.9448 11.444 14.951 11.4384C14.9984 11.3951 15.0606 11.3714 15.1248 11.3723C15.189 11.3731 15.2505 11.3984 15.2967 11.443C15.343 11.4876 15.3705 11.5481 15.3737 11.6122C15.3769 11.6764 15.3555 11.7396 15.3139 11.7886ZM15.1178 10.1065C14.9882 10.1065 14.8599 10.0811 14.7402 10.0315C14.6205 9.98201 14.5117 9.90939 14.4201 9.81783C14.3284 9.72626 14.2557 9.61753 14.2061 9.49787C14.1565 9.3782 14.1309 9.24992 14.1308 9.12037C14.1308 8.99082 14.1562 8.86252 14.2058 8.74281C14.2553 8.6231 14.3279 8.51431 14.4195 8.42267C14.5111 8.33102 14.6198 8.25831 14.7394 8.20868C14.8591 8.15905 14.9874 8.13348 15.1169 8.13342C15.3786 8.13331 15.6296 8.23714 15.8146 8.42207C15.9997 8.607 16.1038 8.85788 16.1039 9.11952C16.104 9.38117 16.0002 9.63214 15.8152 9.81723C15.6303 10.0023 15.3794 10.1064 15.1178 10.1065Z" fill="black"/>
</g>
<defs>
<clipPath id="clip0_1_398">
<rect width="26" height="16" rx="8" fill="white"/>
</clipPath>
</defs>
</svg>
