<svg width="26" height="16" viewBox="0 0 26 16" fill="none" xmlns="http://www.w3.org/2000/svg">
<rect width="26" height="16" fill="#848895"/>
<path d="M19.9116 4.25151C19.3912 4.48253 18.8389 4.63389 18.2733 4.70053C18.8692 4.3443 19.3151 3.7833 19.5275 3.12234C18.9677 3.45479 18.3551 3.68902 17.7162 3.81492C17.4494 3.53016 17.1269 3.30326 16.7688 3.1483C16.4107 2.99333 16.0245 2.91361 15.6343 2.91406C14.0592 2.91406 12.7822 4.19112 12.7822 5.76648C12.7822 5.98972 12.8073 6.20731 12.8561 6.41644C10.4854 6.29734 8.38344 5.16196 6.97657 3.43617C6.72282 3.8715 6.58956 4.36654 6.59049 4.87043C6.59049 5.8599 7.09397 6.73309 7.85936 7.24448C7.40639 7.2301 6.96342 7.1077 6.56734 6.88747L6.56706 6.92359C6.56706 8.30535 7.55032 9.45794 8.85532 9.72041C8.43512 9.83416 7.99454 9.85076 7.56697 9.76895C7.93019 10.9021 8.98345 11.727 10.2314 11.7499C9.22113 12.5429 7.97338 12.9731 6.68898 12.971C6.45897 12.971 6.23178 12.9575 6.00854 12.931C7.31271 13.7692 8.83069 14.2141 10.381 14.2125C15.6278 14.2125 18.4966 9.86632 18.4966 6.09696C18.4966 5.97335 18.494 5.85002 18.4887 5.72753C19.0472 5.3243 19.5291 4.82442 19.9116 4.25151Z" fill="black"/>
</svg>
