<svg width="26" height="16" viewBox="0 0 26 16" fill="none" xmlns="http://www.w3.org/2000/svg">
<rect width="26" height="16" fill="#848895"/>
<path d="M20.5333 4.86683C20.5333 4.7335 20.3333 3.66683 19.8666 3.20016C19.2666 2.5335 18.5999 2.46683 18.2666 2.46683H18.1999C16.1333 2.3335 13.0666 2.3335 12.9999 2.3335C12.9999 2.3335 9.86659 2.3335 7.79992 2.46683H7.73325C7.39992 2.46683 6.73325 2.5335 6.13325 3.20016C5.66659 3.7335 5.46659 4.80016 5.46659 4.9335C5.46659 5.00016 5.33325 6.20016 5.33325 7.46683V8.60016C5.33325 9.86683 5.46659 11.0668 5.46659 11.1335C5.46659 11.2668 5.66659 12.3335 6.13325 12.8002C6.66659 13.4002 7.33325 13.4668 7.73325 13.5335H7.93325C9.13325 13.6668 12.7999 13.6668 12.9333 13.6668C12.9333 13.6668 16.0666 13.6668 18.1333 13.5335H18.1999C18.5333 13.4668 19.1999 13.4002 19.7999 12.8002C20.2666 12.2668 20.4666 11.2002 20.4666 11.0668C20.4666 11.0002 20.5999 9.80016 20.5999 8.5335V7.40016C20.6666 6.20016 20.5333 4.9335 20.5333 4.86683ZM15.5999 8.1335L11.5999 10.2668C11.5333 10.2668 11.5333 10.3335 11.4666 10.3335C11.3999 10.3335 11.3333 10.3335 11.3333 10.2668C11.2666 10.2002 11.1999 10.1335 11.1999 10.0002V5.66683C11.1999 5.5335 11.2666 5.46683 11.3333 5.40016C11.3999 5.3335 11.5333 5.3335 11.6666 5.40016L15.6666 7.5335C15.7999 7.60016 15.8666 7.66683 15.8666 7.80016C15.8666 7.9335 15.7333 8.06683 15.5999 8.1335Z" fill="black"/>
</svg>
